STARTFONT 2.1
FONT -Monotype-Book Antiqua-Regular-I-Normal--33-240-100-100-P-154-iso8859-9
SIZE 24 100 100
FONTBOUNDINGBOX 40 39 -6 -9

STARTPROPERTIES 24
FOUNDRY "Monotype"
FAMILY_NAME "Book Antiqua"
WEIGHT_NAME "Regular"
SLANT "I"
SETWIDTH_NAME "Normal"
ADD_STYLE_NAME ""
PIXEL_SIZE 33
POINT_SIZE 240
RESOLUTION_X 100
RESOLUTION_Y 100
SPACING "P"
AVERAGE_WIDTH 154
CHARSET_REGISTRY "iso8859"
CHARSET_ENCODING "9"
FACE_NAME "Book Antiqua Italic ISO Latin5"
_DEC_DEVICE_FONTNAMES "PS=bookantiqua-it-lat5"
COPYRIGHT "Copyright (c) 1993 Monotype Typography Ltd."
CAP_HEIGHT 26
X_HEIGHT 18
WEIGHT 10
QUAD_WIDTH 19
DEFAULT_CHAR 160
FONT_DESCENT 9
FONT_ASCENT 30
ENDPROPERTIES

CHARS 191

STARTCHAR space
ENCODING 32
SWIDTH 250 0
DWIDTH 8 0
BBX 0 0 0 0
BITMAP
ENDCHAR

STARTCHAR exclam
ENCODING 33
SWIDTH 333 0
DWIDTH 11 0
BBX 7 24 3 0
BITMAP
02
1E
1C
1C
1C
1C
18
18
18
18
10
30
30
30
20
20
20
00
00
00
60
E0
E0
C0
ENDCHAR

STARTCHAR quotedbl
ENCODING 34
SWIDTH 500 0
DWIDTH 17 0
BBX 9 10 6 13
BITMAP
4100
E380
E380
E380
E380
E380
4180
4100
4100
4100
ENDCHAR

STARTCHAR numbersign
ENCODING 35
SWIDTH 606 0
DWIDTH 20 0
BBX 18 23 1 0
BITMAP
030700
030600
030600
070600
060600
060600
060E00
7FFFC0
7FFFC0
060C00
0E0C00
0C0C00
0C0C00
0C1C00
FFFF80
FFFF80
0C1800
1C1800
181800
183800
183000
183000
183000
ENDCHAR

STARTCHAR dollar
ENCODING 36
SWIDTH 500 0
DWIDTH 17 0
BBX 15 27 1 -3
BITMAP
0060
0040
03FC
064E
08C4
1884
3084
3080
3080
3080
3880
1F00
0FF0
03F8
013C
011C
030C
030C
420C
4218
4218
C230
F6E0
7F80
0400
0400
0400
ENDCHAR

STARTCHAR percent
ENCODING 37
SWIDTH 889 0
DWIDTH 29 0
BBX 20 25 4 -1
BITMAP
0000C0
1E00C0
310180
618100
618300
C18200
C18600
C18C00
C30800
C31800
663000
3C2000
006000
004000
00C3C0
018620
010C30
031C30
021830
041830
0C1870
081860
180CC0
300780
200000
ENDCHAR

STARTCHAR ampersand
ENCODING 38
SWIDTH 778 0
DWIDTH 26 0
BBX 24 23 1 0
BITMAP
001E00
00FF00
018300
030300
060200
060002
060003
070001
07C001
01F003
07007E
1C07FC
300FC0
700870
E00830
E01030
E00030
E00060
F00060
7800C0
3C0300
1FFC00
03E000
ENDCHAR

STARTCHAR quoteright
ENCODING 39
SWIDTH 278 0
DWIDTH 9 0
BBX 6 8 3 16
BITMAP
0C
1C
18
38
30
60
60
C0
ENDCHAR

STARTCHAR parenleft
ENCODING 40
SWIDTH 333 0
DWIDTH 11 0
BBX 10 30 2 -6
BITMAP
0040
00C0
0180
0300
0600
0C00
0C00
1800
3800
3000
7000
7000
7000
6000
E000
E000
E000
E000
E000
E000
E000
6000
6000
6000
3000
3000
1000
1800
0800
0800
ENDCHAR

STARTCHAR parenright
ENCODING 41
SWIDTH 333 0
DWIDTH 11 0
BBX 10 30 -1 -6
BITMAP
0400
0400
0200
0300
0300
0100
0180
0180
0180
01C0
01C0
01C0
01C0
01C0
01C0
01C0
01C0
0180
0380
0380
0300
0700
0600
0E00
0C00
1800
3000
6000
C000
8000
ENDCHAR

STARTCHAR asterisk
ENCODING 42
SWIDTH 389 0
DWIDTH 13 0
BBX 11 11 3 12
BITMAP
0700
4700
E600
7400
1CC0
0FE0
3420
E600
4600
0700
0200
ENDCHAR

STARTCHAR plus
ENCODING 43
SWIDTH 606 0
DWIDTH 20 0
BBX 16 16 2 3
BITMAP
0180
0180
0180
0180
0180
0180
0180
FFFF
FFFF
0180
0180
0180
0180
0180
0180
0180
ENDCHAR

STARTCHAR comma
ENCODING 44
SWIDTH 250 0
DWIDTH 8 0
BBX 7 9 -1 -5
BITMAP
06
1C
1C
18
38
30
20
40
C0
ENDCHAR

STARTCHAR minus
ENCODING 45
SWIDTH 606 0
DWIDTH 20 0
BBX 16 2 2 10
BITMAP
FFFF
FFFF
ENDCHAR

STARTCHAR period
ENCODING 46
SWIDTH 250 0
DWIDTH 8 0
BBX 3 4 2 0
BITMAP
60
E0
E0
C0
ENDCHAR

STARTCHAR slash
ENCODING 47
SWIDTH 296 0
DWIDTH 10 0
BBX 18 29 -4 -5
BITMAP
0001C0
000180
000380
000300
000700
000600
000C00
000C00
001800
001800
003000
003000
006000
00E000
00C000
01C000
018000
038000
030000
060000
060000
0C0000
0C0000
180000
180000
300000
300000
600000
E00000
ENDCHAR

STARTCHAR zero
ENCODING 48
SWIDTH 500 0
DWIDTH 17 0
BBX 15 23 1 0
BITMAP
03E0
0618
0C1C
180C
380E
300E
700E
700E
600E
E00E
E00E
E00E
E00C
C01C
C01C
C01C
C038
C038
C030
6070
60E0
31C0
1F00
ENDCHAR

STARTCHAR one
ENCODING 49
SWIDTH 500 0
DWIDTH 17 0
BBX 12 23 2 0
BITMAP
0060
01C0
1EC0
79C0
41C0
01C0
0180
0180
0180
0380
0380
0380
0300
0300
0300
0700
0700
0700
0600
0600
0E00
1F00
FFF0
ENDCHAR

STARTCHAR two
ENCODING 50
SWIDTH 500 0
DWIDTH 17 0
BBX 14 23 1 0
BITMAP
03E0
0FF0
1C78
103C
201C
201C
001C
001C
0018
0038
0030
0060
0060
00C0
0180
0300
0600
0400
0800
1000
2000
7FFC
FFF8
ENDCHAR

STARTCHAR three
ENCODING 51
SWIDTH 500 0
DWIDTH 17 0
BBX 14 23 1 0
BITMAP
03E0
0FF0
1838
3038
1018
0018
0038
0030
0060
01C0
1FC0
0070
0038
001C
001C
001C
001C
401C
4038
C030
C070
E1C0
3F80
ENDCHAR

STARTCHAR four
ENCODING 52
SWIDTH 500 0
DWIDTH 17 0
BBX 16 23 0 0
BITMAP
000C
001C
003C
0068
0058
0098
0118
0338
0238
0430
0C30
1830
1030
3070
6060
7FFF
FFFE
0060
0060
00E0
00E0
01E0
0FFE
ENDCHAR

STARTCHAR five
ENCODING 53
SWIDTH 500 0
DWIDTH 17 0
BBX 15 23 0 0
BITMAP
0FFE
0FFE
0800
0800
0800
1800
1000
1000
1000
17F0
1878
3038
001C
001C
001C
001C
001C
8018
8038
C030
C060
F1C0
3F00
ENDCHAR

STARTCHAR six
ENCODING 54
SWIDTH 500 0
DWIDTH 17 0
BBX 14 23 2 0
BITMAP
003C
00FC
0300
0600
0C00
0800
1800
3000
3000
73E0
67F0
6838
7038
F018
E018
E018
E018
E038
E030
6060
70C0
3F80
0E00
ENDCHAR

STARTCHAR seven
ENCODING 55
SWIDTH 500 0
DWIDTH 17 0
BBX 15 23 3 0
BITMAP
7FFE
7FFC
7FFC
0008
0018
0010
0020
0060
0040
00C0
0180
0100
0300
0200
0400
0C00
0800
1800
3000
2000
6000
C000
8000
ENDCHAR

STARTCHAR eight
ENCODING 56
SWIDTH 500 0
DWIDTH 17 0
BBX 14 23 1 0
BITMAP
01F0
063C
0C1C
0C0C
180C
180C
181C
1C18
1E30
0F60
03C0
07E0
0C70
3038
7038
6018
E018
C018
C038
E030
E060
78C0
3F00
ENDCHAR

STARTCHAR nine
ENCODING 57
SWIDTH 500 0
DWIDTH 17 0
BBX 15 23 1 0
BITMAP
03F0
0638
1C1C
180C
300E
300E
700E
700E
700E
701E
381E
382C
1FCC
0F1C
0018
0018
0038
0030
0060
80C0
4180
7F00
3C00
ENDCHAR

STARTCHAR colon
ENCODING 58
SWIDTH 250 0
DWIDTH 8 0
BBX 5 16 2 0
BITMAP
18
38
38
30
00
00
00
00
00
00
00
00
60
E0
E0
C0
ENDCHAR

STARTCHAR semicolon
ENCODING 59
SWIDTH 250 0
DWIDTH 8 0
BBX 7 21 0 -5
BITMAP
06
0E
0E
0C
00
00
00
00
00
00
00
00
0C
18
38
30
30
60
40
C0
80
ENDCHAR

STARTCHAR less
ENCODING 60
SWIDTH 606 0
DWIDTH 20 0
BBX 16 17 2 3
BITMAP
0001
0007
001F
007C
01F0
0FC0
3F00
FC00
E000
F800
3E00
0F80
03F0
00FC
001F
0007
0001
ENDCHAR

STARTCHAR equal
ENCODING 61
SWIDTH 606 0
DWIDTH 20 0
BBX 16 8 2 8
BITMAP
FFFF
FFFF
0000
0000
0000
0000
FFFF
FFFF
ENDCHAR

STARTCHAR greater
ENCODING 62
SWIDTH 606 0
DWIDTH 20 0
BBX 16 17 2 3
BITMAP
8000
E000
F800
3E00
0F80
03E0
00FC
003F
0007
001F
007C
03F0
0FC0
3F00
F800
E000
8000
ENDCHAR

STARTCHAR question
ENCODING 63
SWIDTH 500 0
DWIDTH 17 0
BBX 11 23 4 0
BITMAP
1F00
3FC0
61C0
C0E0
40E0
00E0
00C0
01C0
0380
0700
0E00
1C00
3000
3000
2000
3000
0000
0000
0000
3000
7000
7000
6000
ENDCHAR

STARTCHAR at
ENCODING 64
SWIDTH 747 0
DWIDTH 25 0
BBX 25 27 1 -4
BITMAP
003F8000
00C06000
03001800
06000400
08000400
18000200
30000200
200E6100
6031E100
4060C100
C0E0C100
C0C0C100
81818100
81818100
83038200
83038200
83050400
C38B0800
43F31080
41C1E080
60000100
20000200
10000600
08000C00
06001000
01C0E000
003F0000
ENDCHAR

STARTCHAR A
ENCODING 65
SWIDTH 722 0
DWIDTH 24 0
BBX 23 23 -1 0
BITMAP
000180
000380
000380
000680
000DC0
000DC0
0019C0
0010C0
0030C0
0060C0
0060E0
00C0E0
008060
01FFE0
030060
030070
060070
040070
0C0030
180030
180038
380038
FE01FE
ENDCHAR

STARTCHAR B
ENCODING 66
SWIDTH 611 0
DWIDTH 20 0
BBX 17 23 1 0
BITMAP
3FFE00
070F00
070780
060380
060380
0E0380
0E0380
0E0700
0C0600
0C0C00
0C3800
0FF800
1C0E00
1C0700
1C0380
1C0380
1C0380
1C0380
380300
380700
380E00
781800
FFE000
ENDCHAR

STARTCHAR C
ENCODING 67
SWIDTH 667 0
DWIDTH 22 0
BBX 20 23 2 0
BITMAP
003F80
01FFF0
030070
0E0030
1C0030
380020
300000
700000
700000
600000
E00000
E00000
E00000
E00000
E00000
E00000
700000
700000
780000
3C0060
1F01C0
0FFF00
01F800
ENDCHAR

STARTCHAR D
ENCODING 68
SWIDTH 778 0
DWIDTH 26 0
BBX 23 23 1 0
BITMAP
3FFFC0
0701F0
070078
07003C
06001C
0E001E
0E000E
0E000E
0E000E
0C000E
0C000E
0C000E
1C000E
1C001C
1C001C
1C0018
180038
180030
380060
3800C0
380180
3C0F00
FFF800
ENDCHAR

STARTCHAR E
ENCODING 69
SWIDTH 611 0
DWIDTH 20 0
BBX 18 23 1 0
BITMAP
3FFFC0
0700C0
0700C0
070080
070080
070000
070000
060000
060000
0E0000
0E0200
0FFE00
0C0000
0C0000
0C0000
1C0000
1C0000
1C0000
180080
180080
380180
380300
FFFF00
ENDCHAR

STARTCHAR F
ENCODING 70
SWIDTH 556 0
DWIDTH 18 0
BBX 18 23 1 0
BITMAP
1FFFC0
070180
070080
070080
070080
070000
060000
060000
060000
0E0000
0E0000
0E0200
0FFE00
0C0000
0C0000
1C0000
1C0000
1C0000
1C0000
180000
180000
380000
FF8000
ENDCHAR

STARTCHAR G
ENCODING 71
SWIDTH 722 0
DWIDTH 24 0
BBX 22 23 2 0
BITMAP
003FC0
01FFF8
038078
0E0010
1C0010
180010
380000
700000
700000
600000
E00000
E00000
E00000
E00000
E007FC
E00070
F00070
700070
780060
3C0060
1E00E0
0FFF80
01FC00
ENDCHAR

STARTCHAR H
ENCODING 72
SWIDTH 778 0
DWIDTH 26 0
BBX 26 23 0 -1
BITMAP
1FF03FC0
03800700
03800600
03800600
03000600
03000E00
07000E00
07000E00
07000C00
06000C00
07FFFC00
06001C00
0E001C00
0E001C00
0E001800
0E001800
0C001800
0C003800
1C003800
1C003800
1C003000
3E00FC00
FF81FF00
ENDCHAR

STARTCHAR I
ENCODING 73
SWIDTH 333 0
DWIDTH 11 0
BBX 12 23 0 0
BITMAP
1FF0
0380
0380
0380
0300
0300
0300
0700
0700
0700
0600
0600
0600
0E00
0E00
0E00
0C00
0C00
0C00
1C00
1C00
1C00
FF80
ENDCHAR

STARTCHAR J
ENCODING 74
SWIDTH 333 0
DWIDTH 11 0
BBX 13 30 -1 -7
BITMAP
0FF8
01E0
01C0
01C0
01C0
01C0
0180
0180
0380
0380
0380
0380
0380
0300
0300
0700
0700
0700
0700
0700
0600
0E00
0E00
0E00
0E00
0C00
1C00
1800
3000
E000
ENDCHAR

STARTCHAR K
ENCODING 75
SWIDTH 667 0
DWIDTH 22 0
BBX 22 23 1 0
BITMAP
1FF07C
078070
0300C0
070180
070300
070600
070C00
061800
063000
066000
0EC000
0FC000
0EE000
0EF000
0C7000
0C3800
1C1C00
1C0E00
1C0F00
1C0780
180380
3C01C0
FF00F8
ENDCHAR

STARTCHAR L
ENCODING 76
SWIDTH 556 0
DWIDTH 18 0
BBX 16 23 1 0
BITMAP
3FE0
0700
0700
0700
0600
0600
0600
0E00
0E00
0E00
0C00
0C00
0C00
1C00
1C00
1C00
1800
1800
1801
3801
3803
3807
FFFF
ENDCHAR

STARTCHAR M
ENCODING 77
SWIDTH 944 0
DWIDTH 31 0
BBX 32 24 0 -1
BITMAP
0FC0003F
01C00078
01C00078
01E000F8
01E000D8
01E001B0
03600130
03700330
02700630
02300430
06380C30
06380830
04381870
0C183070
0C1C3070
081C6070
180C4070
180EC070
180F8060
100F8060
30070060
300600F0
FE0607FC
00020000
ENDCHAR

STARTCHAR N
ENCODING 78
SWIDTH 778 0
DWIDTH 26 0
BBX 27 23 0 0
BITMAP
1F000FE0
07800380
03C00300
03C00300
03600300
02E00300
02700200
02700200
06380600
061C0600
041C0600
040E0400
040E0400
04070400
0C038C00
0C038C00
0801CC00
0801C800
0800E800
18006800
18007800
18003800
FF003800
ENDCHAR

STARTCHAR O
ENCODING 79
SWIDTH 778 0
DWIDTH 26 0
BBX 22 23 2 0
BITMAP
007F80
0181E0
060070
0C0038
180038
38001C
30001C
70001C
70001C
60001C
E0001C
E0001C
E0001C
E00018
E00038
E00030
E00030
E00060
7000E0
7001C0
380380
1F0E00
07F800
ENDCHAR

STARTCHAR P
ENCODING 80
SWIDTH 611 0
DWIDTH 20 0
BBX 19 23 1 0
BITMAP
1FFF80
0383C0
0381E0
0300E0
0700E0
0700E0
0700E0
0700E0
0601C0
0601C0
060380
0E8F00
0E7C00
0C0000
0C0000
0C0000
1C0000
1C0000
1C0000
1C0000
1C0000
3C0000
FF8000
ENDCHAR

STARTCHAR Q
ENCODING 81
SWIDTH 778 0
DWIDTH 26 0
BBX 22 29 2 -6
BITMAP
007F80
01C1E0
060070
0C0038
180038
38001C
30001C
70001C
70001C
60001C
E0001C
E0001C
E0001C
E00018
E00038
E00030
E00030
E00060
7000E0
7001C0
380380
1F0E00
03F800
0F8000
1BE000
107808
101F10
1007F0
0001E0
ENDCHAR

STARTCHAR R
ENCODING 82
SWIDTH 667 0
DWIDTH 22 0
BBX 21 23 0 0
BITMAP
1FFF80
0383C0
0381E0
0380E0
0300E0
0300E0
0300C0
0701C0
070180
070700
067C00
067000
063800
0E1C00
0E1C00
0E0E00
0C0700
0C0700
1C0380
1C01C0
1C01C0
1C00E0
FF80F8
ENDCHAR

STARTCHAR S
ENCODING 83
SWIDTH 556 0
DWIDTH 18 0
BBX 15 23 2 0
BITMAP
01FE
061C
0C04
1804
3004
3000
3000
3000
3800
3E00
1FE0
0FF8
00F8
003C
001C
001C
001C
8018
8018
8030
E060
FF80
3E00
ENDCHAR

STARTCHAR T
ENCODING 84
SWIDTH 611 0
DWIDTH 20 0
BBX 20 23 2 0
BITMAP
7FFFF0
606060
406020
40E020
80E020
00E000
00E000
00C000
00C000
00C000
01C000
01C000
01C000
018000
018000
018000
038000
038000
038000
038000
030000
078000
3FF000
ENDCHAR

STARTCHAR U
ENCODING 85
SWIDTH 778 0
DWIDTH 26 0
BBX 23 23 3 0
BITMAP
FC01FE
3C0078
180030
380030
380070
380070
380070
300060
300060
700060
700060
7000E0
6000E0
6000C0
6000C0
E000C0
E001C0
E001C0
E003C0
E00DC0
783980
3FE1C0
0F03F0
ENDCHAR

STARTCHAR V
ENCODING 86
SWIDTH 722 0
DWIDTH 24 0
BBX 22 23 3 0
BITMAP
FF80FC
1C0038
1C0030
1C0030
0C0060
0C0040
0E00C0
0E0180
0E0100
0E0300
060200
060600
060400
070800
071800
071000
073000
036000
034000
03C000
038000
038000
030000
ENDCHAR

STARTCHAR W
ENCODING 87
SWIDTH 944 0
DWIDTH 31 0
BBX 29 23 4 0
BITMAP
FF0103F8
3C0300E0
180300C0
180700C0
18070080
180F0180
180B0100
181B0300
18138300
18338200
18638600
18618400
18C18400
18818C00
1981C800
1901D800
1B00D000
1E00F000
1E00F000
1C00E000
1C00E000
1800E000
1800C000
ENDCHAR

STARTCHAR X
ENCODING 88
SWIDTH 722 0
DWIDTH 24 0
BBX 23 23 1 0
BITMAP
3FE0FE
078038
038030
038060
01C0C0
01C0C0
00E180
00E300
007600
003C00
003800
001800
003C00
006E00
00CE00
018700
010700
030380
060380
0C01C0
1801C0
3800E0
FF07FC
ENDCHAR

STARTCHAR Y
ENCODING 89
SWIDTH 667 0
DWIDTH 22 0
BBX 20 23 3 0
BITMAP
300010
F80070
BC00F0
1C01C0
0E0300
0E0200
070600
070C00
030800
039000
03B000
01A000
01E000
01C000
01C000
01C000
01C000
018000
018000
018000
038000
038000
1FF000
ENDCHAR

STARTCHAR Z
ENCODING 90
SWIDTH 667 0
DWIDTH 22 0
BBX 20 23 1 0
BITMAP
1FFFF0
1800E0
1001E0
1001C0
100380
000700
000E00
000E00
001C00
003800
007000
007000
00E000
01C000
038000
078000
070000
0E0000
1C0020
380020
780060
7001E0
FFFFE0
ENDCHAR

STARTCHAR bracketleft
ENCODING 91
SWIDTH 333 0
DWIDTH 11 0
BBX 11 29 2 -5
BITMAP
0FE0
0F80
0E00
0C00
0C00
0C00
0C00
1C00
1C00
1C00
1800
1800
1800
3800
3800
3800
3000
3000
3000
3000
7000
7000
7000
6000
6000
6000
E000
E000
FE00
ENDCHAR

STARTCHAR backslash
ENCODING 92
SWIDTH 606 0
DWIDTH 20 0
BBX 8 29 6 -5
BITMAP
C0
C0
E0
60
60
60
60
70
30
30
30
30
38
18
18
18
18
1C
0C
0C
0C
0C
0E
06
06
06
06
07
03
ENDCHAR

STARTCHAR bracketright
ENCODING 93
SWIDTH 333 0
DWIDTH 11 0
BBX 11 29 -1 -5
BITMAP
0FE0
03E0
00E0
00C0
00C0
01C0
01C0
01C0
0180
0180
0180
0180
0380
0380
0380
0300
0300
0300
0300
0700
0700
0700
0600
0600
0600
0E00
0E00
0E00
FE00
ENDCHAR

STARTCHAR asciicircum
ENCODING 94
SWIDTH 606 0
DWIDTH 20 0
BBX 16 13 2 10
BITMAP
0180
03C0
0340
0660
0660
0C30
0C38
1818
300C
300C
6006
6006
C003
ENDCHAR

STARTCHAR underscore
ENCODING 95
SWIDTH 500 0
DWIDTH 17 0
BBX 17 2 0 -4
BITMAP
FFFF80
FFFF80
ENDCHAR

STARTCHAR quoteleft
ENCODING 96
SWIDTH 278 0
DWIDTH 9 0
BBX 6 8 3 16
BITMAP
0C
08
18
30
30
60
E0
C0
ENDCHAR

STARTCHAR a
ENCODING 97
SWIDTH 444 0
DWIDTH 15 0
BBX 13 16 1 0
BITMAP
01E8
07F8
1838
1830
3030
3030
6070
6060
60E0
E0E0
C160
C2E0
C4C8
C8C8
F0F0
C0C0
ENDCHAR

STARTCHAR b
ENCODING 98
SWIDTH 463 0
DWIDTH 15 0
BBX 13 24 1 0
BITMAP
0400
FC00
1C00
1C00
1800
1800
3800
3800
3070
31F8
3218
7418
6818
7018
7018
6038
6030
E030
E060
C060
C0C0
E080
F300
7C00
ENDCHAR

STARTCHAR c
ENCODING 99
SWIDTH 407 0
DWIDTH 13 0
BBX 12 16 2 0
BITMAP
01E0
07F0
1820
3020
3020
6000
6000
E000
C000
C000
C000
C000
E060
E180
7F00
3C00
ENDCHAR

STARTCHAR d
ENCODING 100
SWIDTH 500 0
DWIDTH 17 0
BBX 16 25 1 0
BITMAP
0003
003E
0006
000E
000E
000E
000C
000C
000C
03FC
0C38
1818
3018
3018
7038
6030
6030
E070
E050
C0B0
C160
C262
EC74
F878
6060
ENDCHAR

STARTCHAR e
ENCODING 101
SWIDTH 389 0
DWIDTH 13 0
BBX 11 16 1 0
BITMAP
03E0
0CE0
1860
3060
70E0
60C0
6300
EC00
E000
C000
C000
C000
C040
E180
7E00
3800
ENDCHAR

STARTCHAR f
ENCODING 102
SWIDTH 278 0
DWIDTH 9 0
BBX 19 33 -5 -9
BITMAP
0001E0
0003E0
000C20
001800
001800
003800
003800
003000
003000
007F00
01FE00
007000
006000
006000
006000
006000
00E000
00C000
00C000
00C000
00C000
018000
018000
018000
018000
010000
030000
030000
020000
060000
4C0000
780000
E00000
ENDCHAR

STARTCHAR g
ENCODING 103
SWIDTH 499 0
DWIDTH 16 0
BBX 18 25 -1 -9
BITMAP
00F800
031C00
040FC0
0C0600
1C0600
180600
180E00
180C00
1C1800
0E3000
07C000
018000
038000
038000
03C000
0FF000
18F800
603C00
601C00
C00C00
C00C00
C00C00
E01800
707000
1F8000
ENDCHAR

STARTCHAR h
ENCODING 104
SWIDTH 500 0
DWIDTH 17 0
BBX 15 25 0 0
BITMAP
0300
3E00
0600
0E00
0E00
0E00
0C00
0C00
0C00
1C0E
1C3E
18CE
198E
1B0C
3E1C
341C
3818
3818
3038
7038
6030
6032
6076
6078
E070
ENDCHAR

STARTCHAR i
ENCODING 105
SWIDTH 278 0
DWIDTH 9 0
BBX 7 24 1 0
BITMAP
0E
0E
0E
00
00
00
00
00
1C
3C
DC
98
38
38
38
30
30
70
70
60
64
EC
F0
E0
ENDCHAR

STARTCHAR j
ENCODING 106
SWIDTH 278 0
DWIDTH 9 0
BBX 11 32 -3 -9
BITMAP
00E0
00E0
00E0
0000
0000
0000
0000
01C0
03C0
0DC0
0980
0180
0180
0180
0380
0300
0300
0300
0300
0700
0600
0600
0600
0600
0C00
0C00
0C00
0800
0800
9800
9000
E000
ENDCHAR

STARTCHAR k
ENCODING 107
SWIDTH 444 0
DWIDTH 15 0
BBX 15 25 0 0
BITMAP
0300
3F00
0E00
0600
0E00
0E00
0C00
0C00
0C00
0C0E
1C3C
1870
18C0
1980
1B00
3B00
3500
3B80
3180
3180
71C0
60C0
60E4
60F8
E060
ENDCHAR

STARTCHAR l
ENCODING 108
SWIDTH 278 0
DWIDTH 9 0
BBX 7 24 1 0
BITMAP
02
7E
0E
0C
0C
0C
0C
1C
18
18
18
18
38
30
30
30
70
70
60
60
62
EC
F0
E0
ENDCHAR

STARTCHAR m
ENCODING 109
SWIDTH 778 0
DWIDTH 26 0
BBX 24 16 1 0
BITMAP
1C1C0E
3C7C3E
DCDC4E
991C8C
1A190C
1C1A0C
1C1C1C
381818
383818
303018
303030
303030
607031
606076
606078
E06070
ENDCHAR

STARTCHAR n
ENCODING 110
SWIDTH 556 0
DWIDTH 18 0
BBX 17 16 1 0
BITMAP
0C0E00
3C1E00
5C6600
8C8600
0D0600
1A0E00
1E0C00
1C0C00
1C0C00
181C00
381800
301800
301880
303B00
703C00
703800
ENDCHAR

STARTCHAR o
ENCODING 111
SWIDTH 444 0
DWIDTH 15 0
BBX 13 16 1 0
BITMAP
03E0
0C70
1830
3038
3038
6038
6038
6038
E030
E030
E070
E060
E060
60C0
7180
3E00
ENDCHAR

STARTCHAR p
ENCODING 112
SWIDTH 500 0
DWIDTH 17 0
BBX 16 25 -1 -9
BITMAP
060E
1E3F
2663
4E83
0F03
0D03
0E07
0E07
0C06
1C06
1C0C
180C
1818
1810
1C60
3F80
3000
3000
3000
3000
7000
7000
6000
6000
E000
ENDCHAR

STARTCHAR q
ENCODING 113
SWIDTH 463 0
DWIDTH 15 0
BBX 13 25 1 -9
BITMAP
01E8
07F8
1818
1038
3030
6030
6030
6070
E070
C0A0
C160
C260
C660
ECE0
F0C0
E0C0
00C0
00C0
01C0
01C0
0180
0180
0180
0380
0300
ENDCHAR

STARTCHAR r
ENCODING 114
SWIDTH 389 0
DWIDTH 13 0
BBX 12 16 2 0
BITMAP
0C70
3CE0
5DE0
9920
1A00
1C00
1C00
1800
3800
3000
3000
3000
7000
6000
6000
4000
ENDCHAR

STARTCHAR s
ENCODING 115
SWIDTH 389 0
DWIDTH 13 0
BBX 10 16 1 0
BITMAP
07C0
18C0
2040
6040
6000
6000
7C00
3F80
0FC0
01C0
00C0
80C0
8080
8100
E200
FC00
ENDCHAR

STARTCHAR t
ENCODING 116
SWIDTH 333 0
DWIDTH 11 0
BBX 9 22 2 0
BITMAP
0200
0C00
1C00
1C00
1C00
1800
1800
3880
FF00
3800
3000
3000
3000
3000
7000
6000
6000
6000
6200
EC00
F800
E000
ENDCHAR

STARTCHAR u
ENCODING 117
SWIDTH 556 0
DWIDTH 18 0
BBX 16 16 1 0
BITMAP
1C06
3C06
DC0C
180C
180C
181C
3818
3018
3038
3058
7098
61B0
6331
763A
783C
7030
ENDCHAR

STARTCHAR v
ENCODING 118
SWIDTH 500 0
DWIDTH 17 0
BBX 15 16 1 0
BITMAP
7D8C
7F3E
421E
8606
0406
0806
1806
180C
300C
3008
3018
3010
3820
3840
1F80
0E00
ENDCHAR

STARTCHAR w
ENCODING 119
SWIDTH 722 0
DWIDTH 24 0
BBX 23 16 0 0
BITMAP
7D831C
7F061E
420E2E
860E06
040C06
0C0C06
180C06
181C04
38180C
303808
302818
305810
385820
389C40
1F1F80
0C0E00
ENDCHAR

STARTCHAR x
ENCODING 120
SWIDTH 500 0
DWIDTH 17 0
BBX 16 16 0 0
BITMAP
0E03
1F0F
371F
2390
01A0
01C0
01C0
0180
01C0
01C0
02C0
02C0
04C2
48E4
7878
E070
ENDCHAR

STARTCHAR y
ENCODING 121
SWIDTH 500 0
DWIDTH 17 0
BBX 17 25 0 -9
BITMAP
0C0380
3E0300
CE0700
4E0600
0C0600
0C0600
0C0E00
0C0C00
0C1C00
0C1C00
0C2800
0C5800
0C5800
0DB800
0F3000
0E3000
007000
006000
006000
004000
00C000
408000
C10000
E60000
780000
ENDCHAR

STARTCHAR z
ENCODING 122
SWIDTH 444 0
DWIDTH 15 0
BBX 14 16 0 0
BITMAP
1F84
1FFC
11D8
2030
0020
0040
0080
0100
0200
0600
0C00
1808
1008
3F10
FFF0
41F0
ENDCHAR

STARTCHAR braceleft
ENCODING 123
SWIDTH 333 0
DWIDTH 11 0
BBX 13 31 2 -7
BITMAP
0038
0040
0180
0300
0300
0600
0600
0E00
0E00
0E00
0E00
0C00
0C00
1800
6000
8000
4000
2000
3000
3000
3000
7000
7000
6000
E000
C000
C000
C000
4000
6000
1000
ENDCHAR

STARTCHAR bar
ENCODING 124
SWIDTH 606 0
DWIDTH 20 0
BBX 2 30 9 -6
BITMAP
C0
C0
C0
C0
C0
C0
C0
C0
C0
C0
C0
C0
C0
C0
C0
C0
C0
C0
C0
C0
C0
C0
C0
C0
C0
C0
C0
C0
C0
C0
ENDCHAR

STARTCHAR braceright
ENCODING 125
SWIDTH 333 0
DWIDTH 11 0
BBX 13 31 -2 -7
BITMAP
0080
0060
0020
0030
0030
0030
0070
0070
0060
00E0
00C0
00C0
00C0
0040
0020
0018
0060
0080
0100
0300
0700
0700
0700
0700
0700
0600
0E00
0C00
1800
3000
C000
ENDCHAR

STARTCHAR asciitilde
ENCODING 126
SWIDTH 606 0
DWIDTH 20 0
BBX 18 6 1 8
BITMAP
1C0040
7F8040
7FE080
41FF80
C03F80
800E00
ENDCHAR

STARTCHAR space
ENCODING 160
SWIDTH 250 0
DWIDTH 10 0
BBX 0 0 0 0
BITMAP
ENDCHAR

STARTCHAR exclamdown
ENCODING 161
SWIDTH 333 0
DWIDTH 11 0
BBX 7 24 1 -8
BITMAP
06
0E
0E
0C
00
00
08
08
08
08
18
18
18
10
10
30
30
30
30
70
70
70
F0
80
ENDCHAR

STARTCHAR cent
ENCODING 162
SWIDTH 500 0
DWIDTH 17 0
BBX 11 21 3 0
BITMAP
0100
0100
03E0
0FE0
1A60
3220
6240
6200
E200
E600
C400
C400
C400
C440
E4C0
FD00
7E00
0800
0800
0800
1800
ENDCHAR

STARTCHAR sterling
ENCODING 163
SWIDTH 500 0
DWIDTH 17 0
BBX 16 23 1 0
BITMAP
001E
007F
0182
0302
0602
0E00
0E00
0E00
0C00
0C00
0C00
7FF0
0C00
0C00
0C00
0C00
1800
1800
1003
1002
2002
FFFE
C0FE
ENDCHAR

STARTCHAR currency
ENCODING 164
SWIDTH 606 0
DWIDTH 20 0
BBX 16 17 2 3
BITMAP
C7E2
EFFB
3C3C
700E
6006
E007
C003
C003
C003
C003
E003
E007
7006
380E
7C3E
EFFB
47E2
ENDCHAR

STARTCHAR yen
ENCODING 165
SWIDTH 667 0
DWIDTH 22 0
BBX 21 23 2 0
BITMAP
300008
780030
BC0070
0E00C0
0E0180
070300
070600
030400
038C00
039800
019000
01B000
01E000
3FFF00
00C000
00C000
01C000
3FFE00
01C000
018000
018000
038000
1FF000
ENDCHAR

STARTCHAR brokenbar
ENCODING 166
SWIDTH 606 0
DWIDTH 20 0
BBX 2 30 9 -6
BITMAP
C0
C0
C0
C0
C0
C0
C0
C0
C0
C0
00
00
00
00
00
00
00
00
00
00
C0
C0
C0
C0
C0
C0
C0
C0
C0
C0
ENDCHAR

STARTCHAR section
ENCODING 167
SWIDTH 500 0
DWIDTH 17 0
BBX 15 31 1 -8
BITMAP
00F8
03FE
060C
0C04
0804
1804
1800
1C00
1E00
0F00
1BC0
31F0
2078
603C
601C
600C
700C
3C08
1E18
0FB0
03E0
00F0
0070
0030
4030
4030
4020
C060
E0C0
FF00
3C00
ENDCHAR

STARTCHAR dieresis
ENCODING 168
SWIDTH 333 0
DWIDTH 11 0
BBX 9 3 4 19
BITMAP
E380
E380
E380
ENDCHAR

STARTCHAR copyright
ENCODING 169
SWIDTH 747 0
DWIDTH 25 0
BBX 24 23 0 0
BITMAP
00FF00
0381C0
0C0030
180018
303E4C
20C1C4
4380C2
470042
C60041
8E0001
8E0001
8E0001
8E0001
8E0001
860001
470022
438042
21C184
307E0C
180018
0C0030
0381C0
00FF00
ENDCHAR

STARTCHAR ordfeminine
ENCODING 170
SWIDTH 333 0
DWIDTH 11 0
BBX 9 10 2 13
BITMAP
1F80
3300
6300
6300
6300
C600
CE00
D680
E700
4400
ENDCHAR

STARTCHAR guillemotleft
ENCODING 171
SWIDTH 500 0
DWIDTH 17 0
BBX 13 12 2 2
BITMAP
0208
0410
0C20
18C0
31C0
E300
E380
6180
30C0
1040
0860
0420
ENDCHAR

STARTCHAR logicalnot
ENCODING 172
SWIDTH 606 0
DWIDTH 20 0
BBX 16 8 2 8
BITMAP
FFFF
FFFF
0003
0003
0003
0003
0003
0003
ENDCHAR

STARTCHAR hyphen
ENCODING 173
SWIDTH 333 0
DWIDTH 11 0
BBX 9 2 1 7
BITMAP
FF80
FF80
ENDCHAR

STARTCHAR registered
ENCODING 174
SWIDTH 747 0
DWIDTH 25 0
BBX 24 23 0 0
BITMAP
00FF00
0300C0
0C0030
180018
37FC0C
218704
418382
418382
818381
818381
818701
81F801
819C01
818C01
C18603
418702
418382
27E1E4
100008
180018
040060
0381C0
00FE00
ENDCHAR

STARTCHAR macron
ENCODING 175
SWIDTH 333 0
DWIDTH 11 0
BBX 9 2 4 20
BITMAP
7F80
FF80
ENDCHAR

STARTCHAR degree
ENCODING 176
SWIDTH 402 0
DWIDTH 13 0
BBX 11 10 3 13
BITMAP
1F00
3F80
60C0
C060
C060
C060
E060
70C0
3F80
1F00
ENDCHAR

STARTCHAR plusminus
ENCODING 177
SWIDTH 606 0
DWIDTH 20 0
BBX 16 20 2 0
BITMAP
0180
0180
0180
0180
0180
0180
0180
FFFF
FFFF
0180
0180
0180
0180
0180
0180
0180
0000
0000
FFFF
FFFF
ENDCHAR

STARTCHAR twosuperior
ENCODING 178
SWIDTH 310 0
DWIDTH 10 0
BBX 9 14 1 9
BITMAP
1F00
3380
6180
0180
0180
0100
0300
0600
0C00
0800
1000
2000
7F80
FF80
ENDCHAR

STARTCHAR threesuperior
ENCODING 179
SWIDTH 310 0
DWIDTH 10 0
BBX 9 14 1 9
BITMAP
1F00
1380
2180
0180
0100
0200
1E00
0380
0180
0180
8180
8300
C600
7C00
ENDCHAR

STARTCHAR acute
ENCODING 180
SWIDTH 333 0
DWIDTH 11 0
BBX 8 6 5 18
BITMAP
03
06
0E
18
30
C0
ENDCHAR

STARTCHAR mu
ENCODING 181
SWIDTH 598 0
DWIDTH 20 0
BBX 18 21 -1 -5
BITMAP
0181C0
018180
038180
030380
030380
070300
070700
060700
060600
0E0E00
0C0E00
0C1C00
1C1C40
1E2C80
17CF80
370600
200000
600000
600000
E00000
E00000
ENDCHAR

STARTCHAR paragraph
ENCODING 182
SWIDTH 500 0
DWIDTH 17 0
BBX 17 32 0 -9
BITMAP
0FFF80
3FC600
7FC600
7FC600
FFC600
FFC600
FFC600
FFC600
7FC600
7FC600
3FC600
1FC600
03C600
00C600
00C600
00C600
00C600
00C600
00C600
00C600
00C600
00C600
00C600
00C600
00C600
00C600
00C600
00C600
00C600
00C600
00C600
00C600
ENDCHAR

STARTCHAR periodcentered
ENCODING 183
SWIDTH 250 0
DWIDTH 8 0
BBX 3 4 3 9
BITMAP
60
E0
E0
C0
ENDCHAR

STARTCHAR cedilla
ENCODING 184
SWIDTH 333 0
DWIDTH 11 0
BBX 7 6 0 -6
BITMAP
18
3C
0E
06
86
7C
ENDCHAR

STARTCHAR onesuperior
ENCODING 185
SWIDTH 310 0
DWIDTH 10 0
BBX 7 14 2 9
BITMAP
02
1E
64
0C
0C
0C
0C
0C
08
18
18
18
18
FE
ENDCHAR

STARTCHAR ordmasculine
ENCODING 186
SWIDTH 333 0
DWIDTH 11 0
BBX 9 10 2 13
BITMAP
0F00
3380
6180
6180
C180
C180
C300
C300
E600
7800
ENDCHAR

STARTCHAR guillemotright
ENCODING 187
SWIDTH 500 0
DWIDTH 17 0
BBX 13 12 2 2
BITMAP
6100
2080
10C0
1860
0C70
0E38
0E30
1860
30C0
2180
4300
8200
ENDCHAR

STARTCHAR onequarter
ENCODING 188
SWIDTH 788 0
DWIDTH 26 0
BBX 23 25 2 -1
BITMAP
000030
040060
3C0060
EC00C0
0C0080
0C0180
080300
180200
180600
180C00
180C0C
10181C
30103C
303028
FE6058
004098
00C198
008118
010210
0307FE
020030
060030
0C0030
0801FC
180000
ENDCHAR

STARTCHAR onehalf
ENCODING 189
SWIDTH 788 0
DWIDTH 26 0
BBX 23 25 1 -1
BITMAP
000030
060020
7E0060
4C0040
0C00C0
0C0180
0C0100
0C0300
080600
180400
180C7C
1808CE
181986
383006
FE2006
00600C
00400C
008018
018030
010020
030040
060080
0401FE
0C03FE
180000
ENDCHAR

STARTCHAR threequarters
ENCODING 190
SWIDTH 788 0
DWIDTH 26 0
BBX 24 25 1 -1
BITMAP
000018
1F0010
138030
218020
018060
0100C0
020080
1E0180
038300
018200
018606
818404
830C1C
C6182C
7C106C
00304C
006088
004108
00C118
0083FF
018018
030018
020018
0600FE
0C0000
ENDCHAR

STARTCHAR questiondown
ENCODING 191
SWIDTH 500 0
DWIDTH 17 0
BBX 11 24 1 -8
BITMAP
00C0
01C0
01C0
0180
0000
0000
0000
0180
0080
0080
0180
0300
0600
0C00
1C00
3800
7000
6000
E000
E020
E040
70C0
7F80
1F00
ENDCHAR

STARTCHAR Agrave
ENCODING 192
SWIDTH 722 0
DWIDTH 24 0
BBX 23 30 -1 0
BITMAP
000800
001C00
000E00
000300
000180
000060
000000
000180
000380
000380
000680
000DC0
000DC0
0019C0
0010C0
0030C0
0060C0
0060E0
00C0E0
0080E0
01FFE0
030060
030070
060070
040070
0C0030
180030
180038
380038
FE01FE
ENDCHAR

STARTCHAR Aacute
ENCODING 193
SWIDTH 722 0
DWIDTH 24 0
BBX 23 30 -1 0
BITMAP
000010
000030
000070
0000C0
000100
000600
000000
000180
000380
000380
000680
000DC0
000DC0
0019C0
0010C0
0030C0
0060C0
0060E0
00C0E0
0080E0
01FFE0
030060
030070
060070
040070
0C0030
180030
180038
380038
FE01FE
ENDCHAR

STARTCHAR Acircumflex
ENCODING 194
SWIDTH 722 0
DWIDTH 24 0
BBX 23 30 -1 0
BITMAP
000080
0001C0
000360
000660
000C30
003018
000000
000180
000380
000380
000680
000DC0
000DC0
0019C0
0010C0
0030C0
0060C0
0060E0
00C0E0
0080E0
01FFE0
030060
030070
060070
040070
0C0030
180030
180038
380038
FE01FE
ENDCHAR

STARTCHAR Atilde
ENCODING 195
SWIDTH 722 0
DWIDTH 24 0
BBX 23 29 -1 0
BITMAP
000704
000FCC
0011F8
001070
000000
000000
000180
000380
000380
000680
000DC0
000DC0
0019C0
0010C0
0030C0
0060C0
0060E0
00C0E0
0080E0
01FFE0
030060
030070
060070
040070
0C0030
180030
180038
380038
FE01FE
ENDCHAR

STARTCHAR Adieresis
ENCODING 196
SWIDTH 722 0
DWIDTH 24 0
BBX 24 27 -1 0
BITMAP
000E38
000E38
000E30
000000
000180
000380
000380
0006C0
0005C0
000DC0
0019C0
0010C0
0030E0
0060E0
0060E0
00C0E0
008060
01FFF0
030070
030070
060070
040030
0C0038
180038
180038
38003C
FE01FF
ENDCHAR

STARTCHAR Aring
ENCODING 197
SWIDTH 722 0
DWIDTH 24 0
BBX 23 30 -1 0
BITMAP
0003C0
000660
000420
000420
000660
0003C0
000000
000100
000380
000780
000680
000D80
000D80
0019C0
0031C0
0031C0
0060C0
0060C0
00C0C0
0180E0
01FFE0
030060
030060
060060
040060
0C0070
180070
180070
380078
FE01FE
ENDCHAR

STARTCHAR AE
ENCODING 198
SWIDTH 941 0
DWIDTH 31 0
BBX 30 23 0 0
BITMAP
001FFFFC
0001B81C
0003380C
00033008
00063008
00047000
000C7000
00187000
00107000
00306000
00606000
0040FFE0
00C0E000
01FFE000
0180E000
0300C000
0600C000
0601C000
0C01C008
1801C008
3801C018
38018010
FE07FFF0
ENDCHAR

STARTCHAR Ccedilla
ENCODING 199
SWIDTH 667 0
DWIDTH 22 0
BBX 21 30 2 -7
BITMAP
001F80
00FFF8
038070
060010
0C0010
180010
380000
300000
700000
700000
E00000
E00000
E00000
E00000
E00000
E00000
E00000
700000
700000
780000
3C0060
1F01C0
07FF00
01F800
008000
01E000
003000
003000
047000
03E000
ENDCHAR

STARTCHAR Egrave
ENCODING 200
SWIDTH 611 0
DWIDTH 20 0
BBX 18 30 1 0
BITMAP
018000
00E000
007000
001800
000E00
000000
000000
3FFFC0
0700C0
0700C0
070080
070080
070000
070000
060000
060000
0E0000
0E0200
0FFE00
0C0000
0C0000
0C0000
1C0000
1C0000
1C0000
180080
180080
380180
380300
FFFF00
ENDCHAR

STARTCHAR Eacute
ENCODING 201
SWIDTH 611 0
DWIDTH 20 0
BBX 18 30 1 0
BITMAP
000300
000700
000C00
001800
006000
000000
000000
3FFFC0
0700C0
0700C0
070080
070080
070000
070000
060000
060000
0E0000
0E0200
0FFE00
0C0000
0C0000
0C0000
1C0000
1C0000
1C0000
180080
180080
380180
380300
FFFF00
ENDCHAR

STARTCHAR Ecircumflex
ENCODING 202
SWIDTH 611 0
DWIDTH 20 0
BBX 18 30 1 0
BITMAP
001C00
003C00
007600
00C300
038180
000000
000000
3FFFC0
0700C0
0700C0
070080
070080
070000
070000
060000
060000
0E0000
0E0200
0FFE00
0C0000
0C0000
0C0000
1C0000
1C0000
1C0000
180080
180080
380180
380300
FFFF00
ENDCHAR

STARTCHAR Edieresis
ENCODING 203
SWIDTH 611 0
DWIDTH 20 0
BBX 18 28 1 0
BITMAP
00E380
00E380
00E380
000000
000000
1FFFC0
0700C0
070040
070040
070040
070000
070000
060000
060000
0E0000
0E0100
0FFE00
0E0000
0C0000
0C0000
1C0000
1C0000
1C0000
1C00C0
180080
380080
380180
FFFF80
ENDCHAR

STARTCHAR Igrave
ENCODING 204
SWIDTH 333 0
DWIDTH 11 0
BBX 12 30 0 0
BITMAP
0400
0E00
0700
0180
0040
0030
0000
1FF0
0380
0380
0380
0300
0300
0300
0700
0700
0700
0600
0600
0600
0E00
0E00
0E00
0C00
0C00
0C00
1C00
1C00
1C00
FF80
ENDCHAR

STARTCHAR Iacute
ENCODING 205
SWIDTH 333 0
DWIDTH 11 0
BBX 13 30 0 0
BITMAP
0018
0038
0070
00E0
0180
0200
0000
1FF0
0380
0380
0380
0300
0300
0300
0700
0700
0700
0600
0600
0600
0E00
0E00
0E00
0C00
0C00
0C00
1C00
1C00
1C00
FF80
ENDCHAR

STARTCHAR Icircumflex
ENCODING 206
SWIDTH 333 0
DWIDTH 11 0
BBX 14 30 0 0
BITMAP
0060
00E0
01B0
0310
0418
180C
0000
1FF0
0380
0380
0380
0300
0300
0300
0700
0700
0700
0600
0600
0600
0E00
0E00
0E00
0C00
0C00
0C00
1C00
1C00
1C00
FF80
ENDCHAR

STARTCHAR Idieresis
ENCODING 207
SWIDTH 333 0
DWIDTH 11 0
BBX 14 28 0 0
BITMAP
071C
071C
071C
0000
0000
1FF0
0380
0380
0380
0300
0300
0300
0700
0700
0700
0600
0600
0600
0E00
0E00
0E00
0C00
0C00
0C00
1C00
1C00
1C00
FF80
ENDCHAR

STARTCHAR Gbreve
ENCODING 208
SWIDTH 722 0
DWIDTH 24 0
BBX 22 29 2 0
BITMAP
004020
006040
0030C0
003F80
000F00
000000
003FC0
01FFF8
038078
0E0010
1C0010
180010
380000
700000
700000
600000
E00000
E00000
E00000
E00000
E007FC
E00070
F00070
700070
780060
3C0060
1E00E0
0FFF80
01FC00
ENDCHAR

STARTCHAR Ntilde
ENCODING 209
SWIDTH 778 0
DWIDTH 26 0
BBX 27 29 0 0
BITMAP
00070400
000FC400
0019F800
00007000
00000000
00000000
1F000FE0
07800380
03C00300
03C00300
03600300
02E00300
02700200
02700200
06380600
061C0600
041C0600
040E0400
040E0400
04070400
0C038C00
0C038C00
0801CC00
0801C800
0800E800
18006800
18007800
18003800
FF003800
ENDCHAR

STARTCHAR Ograve
ENCODING 210
SWIDTH 778 0
DWIDTH 26 0
BBX 22 30 2 0
BITMAP
002000
007000
003800
000C00
000600
000100
000000
007F80
0181E0
060070
0C0038
180038
38001C
30001C
70001C
70001C
60001C
E0001C
E0001C
E0001C
E00018
E00038
E00030
E00030
E00060
7000E0
7001C0
380380
1F0E00
07F800
ENDCHAR

STARTCHAR Oacute
ENCODING 211
SWIDTH 778 0
DWIDTH 26 0
BBX 22 30 2 0
BITMAP
0000C0
0001C0
000380
000600
000C00
001000
000000
007F80
0181E0
060070
0C0038
180038
38001C
30001C
70001C
70001C
60001C
E0001C
E0001C
E0001C
E00018
E00038
E00030
E00030
E00060
7000E0
7001C0
380380
1F0E00
07F800
ENDCHAR

STARTCHAR Ocircumflex
ENCODING 212
SWIDTH 778 0
DWIDTH 26 0
BBX 22 30 2 0
BITMAP
000200
000700
000D80
001980
0020C0
00C040
000000
007F80
0181E0
060070
0C0038
180038
38001C
30001C
70001C
70001C
60001C
E0001C
E0001C
E0001C
E00018
E00038
E00030
E00030
E00060
7000E0
7001C0
380380
1F0E00
07F800
ENDCHAR

STARTCHAR Otilde
ENCODING 213
SWIDTH 778 0
DWIDTH 26 0
BBX 22 29 2 0
BITMAP
003C20
007F20
0047E0
0041C0
000000
000000
007F80
0181E0
060070
0C0038
180038
38001C
30001C
70001C
70001C
60001C
E0001C
E0001C
E0001C
E00018
E00038
E00030
E00030
E00060
7000E0
7001C0
380380
1F0E00
07F800
ENDCHAR

STARTCHAR Odieresis
ENCODING 214
SWIDTH 778 0
DWIDTH 26 0
BBX 23 28 2 0
BITMAP
0038E0
0038E0
0038E0
000000
000000
007FC0
01C0F0
070078
0C001C
1C001C
18000E
30000E
30000E
70000E
70000E
E0000E
E0000E
E0000C
E0001C
E0001C
E00018
E00038
E00030
700060
7800C0
3C0180
1F0F00
07F800
ENDCHAR

STARTCHAR multiply
ENCODING 215
SWIDTH 606 0
DWIDTH 20 0
BBX 14 14 3 4
BITMAP
4008
E01C
7038
3870
1CE0
0FC0
0780
0780
0EC0
1CE0
3870
7038
E01C
4008
ENDCHAR

STARTCHAR Oslash
ENCODING 216
SWIDTH 778 0
DWIDTH 26 0
BBX 24 25 1 -1
BITMAP
000003
003FC6
00E0FC
038038
06003C
0E006C
1C00CE
18018E
38030E
38060E
300C0E
70180E
70300E
70200E
70400C
70C01C
71801C
730038
760030
3C0070
3800E0
3E01C0
6F8700
C3FC00
400000
ENDCHAR

STARTCHAR Ugrave
ENCODING 217
SWIDTH 778 0
DWIDTH 26 0
BBX 23 30 3 0
BITMAP
004000
007000
003800
000C00
000600
000100
000000
FC01FE
3C0078
180030
380030
380070
380070
380070
300060
300060
700060
700060
7000E0
6000E0
6000C0
6000C0
E000C0
E001C0
E001C0
E003C0
E00DC0
783980
3FE1C0
0F03F0
ENDCHAR

STARTCHAR Uacute
ENCODING 218
SWIDTH 778 0
DWIDTH 26 0
BBX 23 30 3 0
BITMAP
0000C0
000180
000380
000600
000800
003000
000000
FC01FE
3C0078
180030
380030
380070
380070
380070
300060
300060
700060
700060
7000E0
6000E0
6000C0
6000C0
E000C0
E001C0
E001C0
E003C0
E00DC0
783980
3FE1C0
0F03F0
ENDCHAR

STARTCHAR Ucircumflex
ENCODING 219
SWIDTH 778 0
DWIDTH 26 0
BBX 23 30 3 0
BITMAP
000600
000F00
001B00
003180
006080
008040
000000
FC01FE
3C0078
180030
380030
380070
380070
380070
300060
300060
700060
700060
7000E0
6000E0
6000C0
6000C0
E000C0
E001C0
E001C0
E003C0
E00DC0
783980
3FE1C0
0F03F0
ENDCHAR

STARTCHAR Udieresis
ENCODING 220
SWIDTH 778 0
DWIDTH 26 0
BBX 24 28 3 0
BITMAP
00E380
00E380
00E380
000000
000000
FC01FF
3C0038
180038
380038
380038
380030
380030
300030
300070
700070
700070
700060
600060
600060
6000E0
E000E0
E000E0
E001C0
E003C0
E006C0
7819C0
3FE1C0
0701F8
ENDCHAR

STARTCHAR Idotaccent
ENCODING 221
SWIDTH 333 0
DWIDTH 11 0
BBX 12 28 0 0
BITMAP
01C0
01C0
01C0
0000
0000
1FF0
0380
0380
0380
0300
0300
0700
0700
0700
0600
0600
0600
0E00
0E00
0E00
0C00
0C00
0C00
1C00
1C00
1C00
3C00
FF80
ENDCHAR

STARTCHAR Scedilla
ENCODING 222
SWIDTH 556 0
DWIDTH 18 0
BBX 15 29 2 -6
BITMAP
01FE
061C
0C04
1804
3004
3000
3000
3000
3800
3E00
1FE0
0FF8
00F8
003C
001C
001C
001C
8018
8018
8030
E060
FF80
3E00
0800
0E00
0300
0300
2700
3E00
ENDCHAR

STARTCHAR germandbls
ENCODING 223
SWIDTH 500 0
DWIDTH 17 0
BBX 21 33 -5 -9
BITMAP
0000E0
0003F0
000438
000818
001818
003818
003010
003030
007020
007040
03E080
006080
006180
0061C0
00E1C0
00C0E0
00C060
00C070
00C030
00C030
018820
018860
018CC0
018F00
010000
030000
030000
020000
020000
040000
4C0000
F80000
E00000
ENDCHAR

STARTCHAR agrave
ENCODING 224
SWIDTH 444 0
DWIDTH 15 0
BBX 13 24 1 0
BITMAP
0600
0700
0380
00C0
0060
0010
0000
0000
01E8
07F8
1838
1830
3030
3030
6070
6060
60E0
E0E0
C160
C2E0
C4C8
C8C8
F0F0
C0C0
ENDCHAR

STARTCHAR aacute
ENCODING 225
SWIDTH 444 0
DWIDTH 15 0
BBX 14 24 1 0
BITMAP
000C
001C
0038
0060
0080
0300
0000
0000
01E8
07F8
1838
1830
3030
3030
6070
6060
60E0
E0E0
C160
C2E0
C4C8
C8C8
F0F0
C0C0
ENDCHAR

STARTCHAR acircumflex
ENCODING 226
SWIDTH 444 0
DWIDTH 15 0
BBX 14 24 1 0
BITMAP
0060
00F0
01B0
0318
060C
0804
0000
0000
01E8
07F8
1838
1830
3030
3030
6070
6060
60E0
E0E0
C160
C2E0
C4C8
C8C8
F0F0
C0C0
ENDCHAR

STARTCHAR atilde
ENCODING 227
SWIDTH 444 0
DWIDTH 15 0
BBX 15 23 1 0
BITMAP
0382
07F2
0C7C
0018
0000
0000
0000
01E8
07F8
1838
1830
3030
3030
6070
6060
60E0
E0E0
C160
C2E0
C4C8
C8C8
F0F0
C0C0
ENDCHAR

STARTCHAR adieresis
ENCODING 228
SWIDTH 444 0
DWIDTH 15 0
BBX 14 22 1 0
BITMAP
071C
071C
071C
0000
0000
0000
01E8
07F8
1838
1030
3030
3070
6070
6060
60E0
E0E0
C160
C2C0
C4C8
C8C8
F0F0
C0C0
ENDCHAR

STARTCHAR aring
ENCODING 229
SWIDTH 444 0
DWIDTH 15 0
BBX 13 24 1 0
BITMAP
00F0
0318
0208
0208
0118
00F0
0000
0000
01E8
07F8
1838
3030
3030
3030
6070
6060
60E0
E1E0
C3E0
C2C0
C4C8
D8C8
F1F0
C0C0
ENDCHAR

STARTCHAR ae
ENCODING 230
SWIDTH 638 0
DWIDTH 21 0
BBX 20 16 0 0
BITMAP
0781E0
1FC670
30E830
207830
007070
0070E0
007380
0FFC00
306000
606000
C06000
C0E000
C0E020
E170C0
FE7F00
381C00
ENDCHAR

STARTCHAR ccedilla
ENCODING 231
SWIDTH 407 0
DWIDTH 13 0
BBX 11 22 2 -6
BITMAP
01C0
07E0
1820
3020
6020
6000
6000
E000
C000
C000
C000
C000
C040
E180
7F00
2C00
1000
1C00
0600
0600
4600
7C00
ENDCHAR

STARTCHAR egrave
ENCODING 232
SWIDTH 389 0
DWIDTH 13 0
BBX 11 24 1 0
BITMAP
0C00
0E00
0300
0180
0060
0000
0000
0000
03E0
0CE0
1860
3060
70E0
60C0
6300
EC00
E000
C000
C000
C000
C040
E180
7E00
3800
ENDCHAR

STARTCHAR eacute
ENCODING 233
SWIDTH 389 0
DWIDTH 13 0
BBX 12 24 1 0
BITMAP
0030
0070
00E0
0180
0700
0000
0000
0000
03E0
0CE0
1860
3060
70E0
60C0
6300
EC00
E000
C000
C000
C000
C040
E180
7E00
3800
ENDCHAR

STARTCHAR ecircumflex
ENCODING 234
SWIDTH 389 0
DWIDTH 13 0
BBX 13 24 1 0
BITMAP
01C0
03E0
0720
0C30
1818
0000
0000
0000
03E0
0CE0
1860
3060
70E0
60C0
6300
EC00
E000
C000
C000
C000
C040
E180
7E00
3800
ENDCHAR

STARTCHAR edieresis
ENCODING 235
SWIDTH 389 0
DWIDTH 13 0
BBX 13 22 1 0
BITMAP
0638
0E38
0C30
0000
0000
0000
03E0
0CE0
1060
3060
60E0
61C0
6300
EC00
C000
C000
C000
C000
C040
E180
7E00
3800
ENDCHAR

STARTCHAR igrave
ENCODING 236
SWIDTH 278 0
DWIDTH 9 0
BBX 9 24 1 0
BITMAP
7000
3800
1C00
0600
0380
0000
0000
0000
1C00
3C00
DC00
9800
3800
3800
3800
3000
3000
7000
7000
6000
6400
EC00
F000
E000
ENDCHAR

STARTCHAR iacute
ENCODING 237
SWIDTH 278 0
DWIDTH 9 0
BBX 10 24 1 0
BITMAP
00C0
01C0
0380
0600
1800
0000
0000
0000
1C00
3C00
DC00
9800
3800
3800
3800
3000
3000
7000
7000
6000
6400
EC00
F000
E000
ENDCHAR

STARTCHAR icircumflex
ENCODING 238
SWIDTH 278 0
DWIDTH 9 0
BBX 11 24 1 0
BITMAP
0700
0F80
1D80
30C0
E060
0000
0000
0000
1C00
3C00
DC00
9800
3800
3800
3800
3000
3000
7000
7000
6000
6400
EC00
F000
E000
ENDCHAR

STARTCHAR idieresis
ENCODING 239
SWIDTH 278 0
DWIDTH 9 0
BBX 10 22 1 0
BITMAP
39C0
39C0
31C0
0000
0000
0000
1C00
3C00
D800
9800
3800
3800
3000
3000
3000
7000
6000
6000
6400
EC00
F000
E000
ENDCHAR

STARTCHAR gbreve
ENCODING 240
SWIDTH 499 0
DWIDTH 16 0
BBX 18 33 -1 -9
BITMAP
010080
010100
018300
00FE00
007800
000000
000000
000000
01F800
031C00
040FC0
0C0600
1C0600
180600
180E00
180C00
1C1800
0E3000
07C000
018000
038000
038000
03C000
0FF000
18F800
603C00
601C00
C00C00
C00C00
C00C00
E01800
707000
1F8000
ENDCHAR

STARTCHAR ntilde
ENCODING 241
SWIDTH 556 0
DWIDTH 18 0
BBX 17 23 1 0
BITMAP
00E080
01F980
023F00
000600
000000
000000
000000
0C0E00
3C1E00
5C6600
8C8600
0D0600
1A0E00
1E0C00
1C0C00
1C0C00
181C00
381800
301800
301880
303B00
703C00
703800
ENDCHAR

STARTCHAR ograve
ENCODING 242
SWIDTH 444 0
DWIDTH 15 0
BBX 13 24 1 0
BITMAP
0600
0700
0380
00C0
0030
0000
0000
0000
03E0
0C70
1830
3038
3038
6038
6038
6038
E030
E030
E030
E060
E060
60C0
7180
3E00
ENDCHAR

STARTCHAR oacute
ENCODING 243
SWIDTH 444 0
DWIDTH 15 0
BBX 13 24 1 0
BITMAP
0018
0038
0070
00C0
0380
0000
0000
0000
03E0
0C70
1830
3038
3038
6038
6038
6038
E030
E030
E030
E060
E060
60C0
7180
3E00
ENDCHAR

STARTCHAR ocircumflex
ENCODING 244
SWIDTH 444 0
DWIDTH 15 0
BBX 14 24 1 0
BITMAP
0060
00F0
01B0
0218
0C0C
0000
0000
0000
03E0
0C70
1830
3038
3038
6038
6038
6038
E030
E030
E030
E060
E060
60C0
7180
3E00
ENDCHAR

STARTCHAR otilde
ENCODING 245
SWIDTH 444 0
DWIDTH 15 0
BBX 15 23 1 0
BITMAP
0382
07E2
0CFC
0038
0000
0000
0000
03E0
0C70
1830
3038
3038
6038
6038
6038
E030
E030
E030
E060
E060
60C0
7180
3E00
ENDCHAR

STARTCHAR odieresis
ENCODING 246
SWIDTH 444 0
DWIDTH 15 0
BBX 14 22 1 0
BITMAP
031C
071C
071C
0000
0000
0000
07E0
0870
1830
3038
3038
6038
6038
6038
E030
E030
E070
E060
E040
60C0
7180
3E00
ENDCHAR

STARTCHAR divide
ENCODING 247
SWIDTH 606 0
DWIDTH 20 0
BBX 16 14 2 4
BITMAP
0180
03C0
03C0
0180
0000
0000
FFFF
FFFF
0000
0000
0180
03C0
03C0
0180
ENDCHAR

STARTCHAR oslash
ENCODING 248
SWIDTH 444 0
DWIDTH 15 0
BBX 16 18 -1 -1
BITMAP
0003
01FE
020C
041C
0C1E
182E
186E
38CE
398E
310C
320C
361C
3C18
3810
3830
3C60
CF80
4000
ENDCHAR

STARTCHAR ugrave
ENCODING 249
SWIDTH 556 0
DWIDTH 18 0
BBX 15 24 1 0
BITMAP
0300
0380
00C0
0060
0018
0000
0000
0000
1C0E
3C0C
DC0C
180C
1818
1818
3818
3018
3070
3070
70B0
6130
6232
7474
7878
7070
ENDCHAR

STARTCHAR uacute
ENCODING 250
SWIDTH 556 0
DWIDTH 18 0
BBX 15 24 1 0
BITMAP
000E
001C
0038
0060
01C0
0000
0000
0000
1C0E
3C0C
DC0C
180C
1818
1818
3818
3018
3070
3070
70B0
6130
6232
7474
7878
7070
ENDCHAR

STARTCHAR ucircumflex
ENCODING 251
SWIDTH 556 0
DWIDTH 18 0
BBX 15 24 1 0
BITMAP
0030
0078
00D8
030C
0606
0000
0000
0000
1C0E
3C0C
DC0C
180C
1818
1818
3818
3018
3070
3070
70B0
6130
6232
7474
7878
7070
ENDCHAR

STARTCHAR udieresis
ENCODING 252
SWIDTH 556 0
DWIDTH 18 0
BBX 15 22 2 0
BITMAP
038E
038E
038E
0000
0000
0000
1C0E
3C0C
DC0C
180C
181C
1818
3818
3018
3078
3050
70B0
6130
6232
7476
7878
7070
ENDCHAR

STARTCHAR dotlessi
ENCODING 253
SWIDTH 278 0
DWIDTH 9 0
BBX 6 16 1 0
BITMAP
08
3C
7C
9C
18
38
38
30
30
70
70
60
60
E4
F8
E0
ENDCHAR

STARTCHAR scedilla
ENCODING 254
SWIDTH 389 0
DWIDTH 13 0
BBX 10 22 1 -6
BITMAP
07C0
18C0
3040
6040
6000
6000
7C00
3F80
0FC0
00C0
00C0
80C0
8080
8180
E300
FC00
1000
3C00
0E00
0600
8600
7C00
ENDCHAR

STARTCHAR ydieresis
ENCODING 255
SWIDTH 500 0
DWIDTH 17 0
BBX 17 31 0 -9
BITMAP
00C700
01C700
01C700
000000
000000
000000
0C0380
3C0300
CC0300
4C0700
0C0600
0C0600
0C0E00
0C0C00
0C1C00
0C1C00
0C2800
0C5800
0C9800
1DB800
0F3000
0C3000
007000
006000
006000
00C000
008000
418000
C10000
E60000
780000
ENDCHAR
ENDFONT
